<?xml version="1.0" encoding="UTF-8" standalone="no"?>
<svg
   xmlns:dc="http://purl.org/dc/elements/1.1/"
   xmlns:cc="http://creativecommons.org/ns#"
   xmlns:rdf="http://www.w3.org/1999/02/22-rdf-syntax-ns#"
   xmlns:svg="http://www.w3.org/2000/svg"
   xmlns="http://www.w3.org/2000/svg"
   xmlns:sodipodi="http://sodipodi.sourceforge.net/DTD/sodipodi-0.dtd"
   xmlns:inkscape="http://www.inkscape.org/namespaces/inkscape"
   width="65.356575mm"
   height="30.696184mm"
   viewBox="0 0 65.356575 30.696184"
   version="1.1"
   id="svg4458"
   inkscape:version="0.92.3 (2405546, 2018-03-11)"
   sodipodi:docname="IDF_Train_N_logo_2020.svg">
  <defs
     id="defs4452" />
  <sodipodi:namedview
     id="base"
     pagecolor="#ffffff"
     bordercolor="#666666"
     borderopacity="1.0"
     inkscape:pageopacity="0.0"
     inkscape:pageshadow="2"
     inkscape:zoom="1.1394575"
     inkscape:cx="-176.72887"
     inkscape:cy="58.04758"
     inkscape:document-units="mm"
     inkscape:current-layer="layer1"
     inkscape:document-rotation="0"
     showgrid="false"
     fit-margin-top="0"
     fit-margin-left="0"
     fit-margin-right="0"
     fit-margin-bottom="0"
     inkscape:window-width="1680"
     inkscape:window-height="1022"
     inkscape:window-x="1920"
     inkscape:window-y="0"
     inkscape:window-maximized="1" />
  <metadata
     id="metadata4455">
    <rdf:RDF>
      <cc:Work
         rdf:about="">
        <dc:format>image/svg+xml</dc:format>
        <dc:type
           rdf:resource="http://purl.org/dc/dcmitype/StillImage" />
        <dc:title />
      </cc:Work>
    </rdf:RDF>
  </metadata>
  <g
     inkscape:label="Calque 1"
     inkscape:groupmode="layer"
     id="layer1"
     transform="translate(-182.04864,-216.581)">
    <g
       id="g4250"
       transform="matrix(3.8381789,0,0,3.8380096,-439.74591,-456.33109)">
      <g
         transform="matrix(0.35277777,0,0,-0.35277777,168.22373,175.32958)"
         id="g46650">
        <path
           inkscape:connector-curvature="0"
           id="path46652"
           style="fill:#ffffff;fill-opacity:1;fill-rule:nonzero;stroke:none"
           d="m 0,0 h -12.604 c -2.767,0 -5.031,-2.265 -5.031,-5.032 v -12.603 c 0,-2.769 2.264,-5.033 5.031,-5.033 H 0 c 2.767,0 5.032,2.264 5.032,5.033 V -5.032 C 5.032,-2.265 2.767,0 0,0" />
      </g>
      <g
         transform="matrix(0.35277777,0,0,-0.35277777,168.22373,175.32958)"
         id="g46654">
        <path
           inkscape:connector-curvature="0"
           id="path46656"
           style="fill:#231f20;fill-opacity:1;fill-rule:nonzero;stroke:none"
           d="m 0,0 h -12.604 c -2.767,0 -5.031,-2.265 -5.031,-5.032 v -12.603 c 0,-2.769 2.264,-5.033 5.031,-5.033 H 0 c 2.767,0 5.032,2.264 5.032,5.033 V -5.032 C 5.032,-2.265 2.767,0 0,0 m 3.558,-17.635 c 0,-1.963 -1.596,-3.56 -3.558,-3.56 h -12.604 c -1.962,0 -3.558,1.597 -3.558,3.56 v 12.603 c 0,1.961 1.596,3.558 3.558,3.558 H 0 c 1.962,0 3.558,-1.597 3.558,-3.558 z" />
      </g>
      <g
         transform="matrix(0.35277777,0,0,-0.35277777,167.18928,181.10149)"
         id="g46658">
        <path
           inkscape:connector-curvature="0"
           id="path46660"
           style="fill:#231f20;fill-opacity:1;fill-rule:nonzero;stroke:none"
           d="M 0,0 0.133,0.104 C 0.541,0.433 0.921,0.938 1.198,1.722 1.584,2.82 1.857,3.802 1.932,5.01 2.036,6.498 1.424,8.812 1.018,9.891 l -0.141,0.381 c -0.088,0.242 -0.421,0.757 -1.012,1.374 -0.508,0.529 -0.997,0.567 -1.74,0.567 h -3.02 c -0.744,0 -1.232,-0.038 -1.741,-0.567 -0.592,-0.615 -0.925,-1.132 -1.011,-1.374 L -7.79,9.89 C -8.196,8.812 -8.808,6.498 -8.705,5.008 -8.63,3.803 -8.356,2.824 -7.968,1.722 -7.693,0.937 -7.313,0.433 -6.905,0.104 L -6.77,0.002 -8.969,-2.444 c -0.179,-0.199 -0.179,-0.522 0,-0.72 0.178,-0.197 0.468,-0.197 0.645,0 l 0.76,0.843 h 8.358 l 0.759,-0.843 c 0.176,-0.197 0.467,-0.197 0.644,0 0.179,0.198 0.179,0.521 0,0.72 z m -0.738,0.892 c -0.418,0 -0.756,0.337 -0.756,0.755 0,0.416 0.338,0.754 0.756,0.754 0.418,0 0.756,-0.338 0.756,-0.754 0,-0.418 -0.338,-0.755 -0.756,-0.755 m -6.835,4.842 c -0.462,0 0.264,4.05 0.594,4.05 h 7.104 c 0.36,0 1.203,-4.05 0.637,-4.05 z m 0.769,-4.087 c 0,0.416 0.338,0.754 0.755,0.754 0.419,0 0.756,-0.338 0.756,-0.754 0,-0.418 -0.337,-0.755 -0.756,-0.755 -0.417,0 -0.755,0.337 -0.755,0.755 m 0.154,-2.951 0.809,0.901 c 0.395,-0.091 0.758,-0.091 1.023,-0.091 h 2.864 c 0.265,0 0.628,0 1.023,0.091 l 0.811,-0.901 z" />
      </g>
    </g>
    <g
       id="g518"
       transform="matrix(3.8380091,0,0,3.8381789,-546.22989,-529.23043)">
      <g
         transform="matrix(0.35277777,0,0,-0.35277777,204.98385,202.31147)"
         id="g46734">
        <path
           inkscape:connector-curvature="0"
           id="path46736"
           style="fill:#2eb793;fill-opacity:1;fill-rule:nonzero;stroke:none"
           d="m 0,0 h -12.467 c -2.816,0 -5.101,2.283 -5.101,5.099 v 12.467 c 0,2.817 2.285,5.101 5.101,5.101 H 0 c 2.816,0 5.1,-2.284 5.1,-5.101 V 5.099 C 5.1,2.283 2.816,0 0,0" />
      </g>
      <g
         transform="matrix(0.35277777,0,0,-0.35277777,203.74472,200.43113)"
         id="g46738">
        <path
           inkscape:connector-curvature="0"
           id="path46740"
           style="fill:#ffffff;fill-opacity:1;fill-rule:nonzero;stroke:none"
           d="M 0,0 -4.32,5.969 C -4.932,6.802 -5.256,7.533 -5.358,7.805 H -5.391 V 0 h -2.466 v 12.006 h 2.431 l 4.252,-6.19 C -0.528,4.88 -0.136,4.184 -0.068,3.894 h 0.033 v 8.112 H 2.414 V 0 Z" />
      </g>
    </g>
  </g>
</svg>
